<svg id="SvgjsSvg1056" width="288" height="288" xmlns="http://www.w3.org/2000/svg" version="1.1" xmlnsXlink="http://www.w3.org/1999/xlink" xmlnsSvgjs="http://svgjs.com/svgjs"><defs id="SvgjsDefs1057"></defs><g id="SvgjsG1058"><svg xmlns="http://www.w3.org/2000/svg" width="288" height="288" viewBox="0 0 400 400"><path fill-rule="evenodd" d="M125.200 75.200 C 46.109 154.292,51.631 148.022,55.116 154.760 C 57.063 158.525,57.854 158.594,99.270 158.594 L 138.281 158.594 138.281 275.060 L 138.281 391.526 140.565 393.810 L 142.849 396.094 199.627 396.094 L 256.406 396.094 259.063 393.437 L 261.719 390.781 261.719 274.687 L 261.719 158.594 301.250 158.594 L 340.781 158.594 343.438 155.938 C 345.643 153.732,346.094 152.705,346.094 149.888 L 346.094 146.494 274.800 75.200 L 203.506 3.906 200.000 3.906 L 196.494 3.906 125.200 75.200 M258.135 83.398 L 315.864 141.406 282.893 141.406 C 247.131 141.406,246.604 141.465,244.683 145.681 C 243.973 147.240,243.750 175.366,243.750 263.318 L 243.750 378.906 199.609 378.906 L 155.469 378.906 155.469 263.595 C 155.469 137.609,155.713 144.399,151.097 142.296 C 149.736 141.675,139.166 141.406,116.176 141.406 L 83.207 141.406 141.407 83.203 C 173.417 51.191,199.786 25.087,200.007 25.195 C 200.227 25.303,226.385 51.494,258.135 83.398 " fill="#878a8c" class="color000 svgShape"></path></svg></g></svg>