<svg id="SvgjsSvg1051" width="288" height="288" xmlns="http://www.w3.org/2000/svg" version="1.1" xmlnsXlink="http://www.w3.org/1999/xlink" xmlnsSvgjs="http://svgjs.com/svgjs"><defs id="SvgjsDefs1052"></defs><g id="SvgjsG1053"><svg xmlns="http://www.w3.org/2000/svg" width="288" height="288" viewBox="0 0 400 400"><path fill-rule="evenodd" d="M148.828 1.481 C 144.999 3.254,141.885 6.475,140.276 10.326 C 139.201 12.900,139.063 24.369,139.063 110.912 L 139.063 208.594 98.221 208.594 C 52.871 208.594,54.903 208.361,52.624 213.815 C 50.369 219.213,48.619 216.823,122.358 309.066 C 200.055 406.259,194.711 400.000,200.000 400.000 C 205.289 400.000,199.945 406.259,277.642 309.066 C 351.381 216.823,349.631 219.213,347.376 213.815 C 345.097 208.361,347.129 208.594,301.779 208.594 L 260.938 208.594 260.938 110.912 C 260.938 3.928,261.211 10.301,256.404 5.175 C 251.429 -0.130,253.232 0.034,200.000 0.034 C 154.879 0.034,151.763 0.122,148.828 1.481 M243.153 119.336 C 243.374 228.083,243.158 222.400,247.186 225.080 C 248.509 225.960,255.713 226.248,284.258 226.563 L 319.688 226.953 260.157 301.367 C 227.415 342.295,200.344 375.781,200.000 375.781 C 199.656 375.781,172.585 342.295,139.843 301.367 L 80.312 226.953 115.742 226.563 C 144.287 226.248,151.491 225.960,152.814 225.080 C 156.842 222.400,156.626 228.083,156.847 119.336 L 157.054 17.969 200.000 17.969 L 242.946 17.969 243.153 119.336 " fill="#878a8c" class="color000 svgShape"></path></svg></g></svg>