<svg id="SvgjsSvg1067" width="288" height="288" xmlns="http://www.w3.org/2000/svg" version="1.1" xmlnsXlink="http://www.w3.org/1999/xlink" xmlnsSvgjs="http://svgjs.com/svgjs"><defs id="SvgjsDefs1068"></defs><g id="SvgjsG1069"><svg xmlns="http://www.w3.org/2000/svg" width="288" height="288" viewBox="0 0 400 400"><path fill-rule="evenodd" d="M189.529 17.963 C 176.026 22.276,166.406 35.433,166.406 49.590 L 166.406 54.485 160.352 56.632 C 123.981 69.528,94.958 102.689,87.181 140.234 C 86.558 143.242,82.164 169.434,77.417 198.438 C 66.348 266.070,68.145 260.724,52.506 272.534 C 41.539 280.815,37.353 285.325,35.139 291.240 C 29.266 306.939,35.745 323.306,50.764 330.709 L 55.824 333.203 98.810 333.428 L 141.797 333.652 143.149 339.287 C 157.159 397.682,242.841 397.682,256.851 339.287 L 258.203 333.652 301.190 333.428 L 344.176 333.203 349.236 330.709 C 364.255 323.306,370.734 306.939,364.861 291.240 C 362.647 285.325,358.461 280.815,347.494 272.534 C 331.855 260.724,333.652 266.070,322.583 198.438 C 312.868 139.077,312.594 137.620,309.318 127.801 C 298.463 95.271,271.797 68.031,239.648 56.632 L 233.594 54.485 233.594 49.590 C 233.594 27.185,211.133 11.063,189.529 17.963 M208.314 36.352 C 211.979 38.500,215.200 43.233,216.008 47.656 L 216.507 50.391 200.000 50.391 L 183.493 50.391 183.992 47.656 C 186.088 36.176,198.316 30.493,208.314 36.352 M223.438 69.946 C 257.994 78.854,284.640 104.477,294.098 137.891 C 295.192 141.758,300.292 170.442,305.430 201.633 C 317.555 275.238,315.671 270.492,340.217 289.237 C 352.523 298.635,352.381 311.355,339.922 315.519 C 336.127 316.787,63.873 316.787,60.078 315.519 C 54.413 313.626,50.781 308.539,50.781 302.498 C 50.781 297.086,52.783 294.539,63.303 286.569 C 76.234 276.772,80.465 271.651,84.109 261.384 C 84.730 259.634,89.440 232.715,94.575 201.563 C 104.646 140.470,105.828 135.042,111.739 122.777 C 126.330 92.500,153.914 72.533,187.891 67.654 C 195.345 66.584,215.416 67.878,223.438 69.946 M239.548 336.133 C 236.562 351.576,217.189 366.406,200.000 366.406 C 182.811 366.406,163.438 351.576,160.452 336.133 L 159.961 333.594 200.000 333.594 L 240.039 333.594 239.548 336.133 " fill="#9ea0a2" class="color000 svgShape"></path></svg></g></svg>