<svg id="SvgjsSvg1001" width="288" height="288" xmlns="http://www.w3.org/2000/svg" version="1.1" xmlnsXlink="http://www.w3.org/1999/xlink" xmlnsSvgjs="http://svgjs.com/svgjs"><defs id="SvgjsDefs1002"></defs><g id="SvgjsG1008"><svg xmlns="http://www.w3.org/2000/svg" width="288" height="288" viewBox="0 0 400 400"><path fill-rule="evenodd" d="M47.324 5.509 C 25.272 9.239,6.536 26.715,1.246 48.487 C -0.888 57.270,-0.619 244.986,1.540 253.427 C 5.737 269.838,16.489 283.119,31.641 290.608 C 42.314 295.884,44.907 296.261,73.242 296.663 L 98.438 297.021 98.438 343.649 C 98.437 394.716,98.236 392.506,103.081 394.513 C 108.587 396.794,107.205 397.958,160.989 345.714 L 211.203 296.937 281.578 296.671 C 360.370 296.373,356.090 296.673,368.359 290.608 C 383.511 283.119,394.263 269.838,398.460 253.427 C 400.619 244.986,400.888 57.270,398.754 48.487 C 393.989 28.877,379.675 13.918,358.984 6.926 L 353.516 5.078 202.344 4.968 C 119.199 4.907,49.440 5.151,47.324 5.509 M350.442 21.934 C 365.301 24.628,377.738 36.256,382.548 51.953 C 384.775 59.221,384.775 242.342,382.548 249.609 C 377.741 265.294,364.546 277.185,349.219 279.643 C 345.972 280.163,318.978 280.459,274.371 280.463 L 204.601 280.469 193.121 291.368 C 186.807 297.363,166.699 316.822,148.438 334.611 L 115.234 366.954 114.844 326.174 C 114.431 283.103,114.544 284.399,110.938 281.470 C 110.069 280.764,102.798 280.510,82.813 280.488 C 52.190 280.453,48.174 280.020,39.453 275.814 C 28.797 270.674,21.097 261.503,17.452 249.609 C 16.092 245.169,16.016 239.949,16.016 150.781 L 16.016 56.641 17.761 51.172 C 22.719 35.637,34.367 24.927,49.609 21.888 C 54.607 20.892,344.937 20.936,350.442 21.934 " fill="#878a8c" class="color000 svgShape"></path></svg></g></svg>