<svg id="SvgjsSvg1021" width="288" height="288" xmlns="http://www.w3.org/2000/svg" version="1.1" xmlnsXlink="http://www.w3.org/1999/xlink" xmlnsSvgjs="http://svgjs.com/svgjs"><defs id="SvgjsDefs1022"></defs><g id="SvgjsG1023"><svg xmlns="http://www.w3.org/2000/svg" width="288" height="288" viewBox="0 0 400 400"><path fill-rule="evenodd" d="M58.295 167.275 C 42.168 171.061,30.692 188.595,33.449 205.237 C 38.778 237.395,82.282 244.125,96.667 215.018 C 109.334 189.389,86.280 160.705,58.295 167.275 M189.529 167.963 C 163.682 176.218,158.165 211.518,180.250 227.333 C 202.493 243.260,233.594 227.325,233.594 200.000 C 233.594 177.176,211.341 160.997,189.529 167.963 M322.544 168.165 C 285.644 181.103,296.656 235.826,335.670 233.392 C 359.634 231.897,374.052 206.526,363.323 184.732 C 356.201 170.265,337.836 162.804,322.544 168.165 " fill="#878a8c" class="color000 svgShape"></path></svg></g></svg>