<svg id="SvgjsSvg1026" width="288" height="288" xmlns="http://www.w3.org/2000/svg" version="1.1" xmlnsXlink="http://www.w3.org/1999/xlink" xmlnsSvgjs="http://svgjs.com/svgjs"><defs id="SvgjsDefs1027"></defs><g id="SvgjsG1028"><svg xmlns="http://www.w3.org/2000/svg" width="288" height="288" viewBox="0 0 400 400"><path fill-rule="evenodd" d="M172.873 33.008 C 171.491 34.509,171.176 36.191,170.719 44.531 C 168.965 76.493,160.524 107.971,147.045 132.813 C 142.735 140.756,138.101 148.437,137.621 148.435 C 137.340 148.434,136.090 145.948,134.845 142.911 C 132.253 136.592,122.580 121.526,120.348 120.331 C 114.082 116.978,110.730 120.320,109.006 131.641 C 106.072 150.903,101.289 165.444,91.018 186.328 C 78.316 212.155,75.493 223.341,75.441 248.047 C 75.335 298.794,103.085 341.417,149.539 361.860 C 174.280 372.747,184.873 369.964,175.820 354.954 C 168.053 342.076,165.235 330.926,165.798 315.298 C 166.197 304.229,165.506 306.875,174.898 280.463 C 176.657 275.518,178.574 269.190,179.160 266.400 L 180.225 261.328 181.246 264.844 C 181.808 266.777,182.478 273.225,182.735 279.172 C 183.264 291.385,184.055 292.969,189.630 292.969 C 200.248 292.969,216.496 251.011,213.758 230.664 C 213.175 226.335,213.302 226.404,217.421 232.656 C 241.247 268.822,242.996 312.682,222.188 352.242 C 213.458 368.840,217.961 372.859,236.284 364.823 C 337.005 320.650,355.822 181.611,272.966 93.780 C 262.790 82.992,254.995 87.601,259.901 101.504 C 262.410 108.616,263.201 119.837,261.698 127.005 C 260.597 132.261,260.955 132.702,256.590 120.703 C 243.758 85.430,218.006 53.961,186.460 35.001 C 179.235 30.658,175.536 30.116,172.873 33.008 M194.922 57.470 C 222.838 79.099,243.636 113.348,250.798 149.484 C 254.595 168.644,272.737 149.876,275.598 123.828 L 276.199 118.359 281.826 126.843 C 332.537 203.295,317.098 301.193,247.656 343.520 C 238.479 349.114,238.984 349.083,241.067 343.918 C 259.778 297.524,248.377 241.865,212.759 205.719 C 203.733 196.559,200.632 195.391,196.449 199.574 C 194.056 201.966,194.056 203.645,196.445 210.684 C 201.635 225.977,201.716 242.354,196.681 258.594 L 195.107 263.672 192.916 257.110 C 188.549 244.031,181.550 232.564,177.373 231.647 C 171.700 230.401,168.779 234.273,168.762 243.062 C 168.739 254.725,165.521 268.608,159.196 284.331 C 150.864 305.041,149.920 327.421,156.602 345.827 L 158.418 350.831 156.748 350.312 C 146.373 347.093,125.380 332.211,116.178 321.553 C 83.941 284.213,79.499 239.406,103.313 191.797 C 111.018 176.393,114.553 167.332,118.101 153.886 L 120.650 144.232 122.848 149.114 C 124.057 151.800,125.950 157.229,127.055 161.178 C 131.168 175.878,136.099 175.294,147.141 158.801 C 166.695 129.592,179.756 93.271,182.943 59.237 L 183.873 49.311 186.272 50.969 C 187.592 51.881,191.484 54.806,194.922 57.470 " fill="#1879d3" class="color000 svgShape"></path></svg></g></svg>