<svg id="SvgjsSvg1044" width="288" height="288" xmlns="http://www.w3.org/2000/svg" version="1.1" xmlnsXlink="http://www.w3.org/1999/xlink" xmlnsAvgjs="http://svgjs.com/svgjs"><defs id="SvgjsDefs1045"></defs><g id="SvgjsG1046"><svg xmlns="http://www.w3.org/2000/svg" width="288" height="288"><svg xmlns="http://www.w3.org/2000/svg" width="288" height="288" viewBox="0 0 400 400"><path fill="#878a8c" fill-rule="evenodd" class="color040404 svgShape color878a8c"></path><path fill="#878a8c" fill-rule="evenodd" d="M197.000 1.093 C 195.900 1.178,194.829 1.417,194.620 1.624 C 194.411 1.831,193.826 2.000,193.320 2.000 C 192.814 2.000,192.400 2.180,192.400 2.400 C 192.400 2.620,192.126 2.800,191.791 2.800 C 190.090 2.800,181.578 9.404,179.563 12.286 C 179.222 12.774,178.199 14.034,177.290 15.086 C 176.380 16.139,174.330 18.800,172.733 21.000 C 171.136 23.200,169.725 25.090,169.596 25.200 C 169.467 25.310,168.926 26.023,168.393 26.784 C 166.230 29.878,161.189 35.013,158.441 36.921 C 155.923 38.670,150.634 38.595,147.105 36.761 C 146.723 36.562,146.220 36.400,145.986 36.400 C 145.752 36.400,144.816 36.040,143.906 35.600 C 142.995 35.160,142.102 34.800,141.921 34.800 C 141.739 34.800,140.738 34.422,139.696 33.960 C 138.653 33.498,137.395 32.958,136.900 32.760 C 136.405 32.562,135.505 32.196,134.900 31.946 C 134.295 31.697,133.440 31.361,133.000 31.200 C 132.560 31.039,131.705 30.703,131.100 30.454 C 130.495 30.204,129.550 29.820,129.000 29.600 C 126.553 28.621,125.755 28.284,125.105 27.953 C 124.723 27.759,123.958 27.600,123.405 27.600 C 122.852 27.600,122.400 27.440,122.400 27.244 C 122.400 26.909,121.478 26.683,117.897 26.142 C 117.071 26.018,116.295 25.755,116.174 25.558 C 115.866 25.059,105.310 25.099,105.000 25.600 C 104.864 25.820,104.420 26.000,104.014 26.000 C 103.216 26.000,100.123 27.495,99.285 28.286 C 99.002 28.553,98.282 29.063,97.685 29.419 C 97.088 29.775,95.971 30.907,95.203 31.933 C 94.434 32.960,93.714 33.890,93.603 34.000 C 93.407 34.193,92.791 35.253,92.034 36.700 C 89.869 40.836,88.620 46.179,87.197 57.400 C 86.973 59.160,86.615 61.860,86.400 63.400 C 86.185 64.940,85.838 67.460,85.630 69.000 C 85.421 70.540,85.051 72.700,84.807 73.800 C 84.564 74.900,84.261 76.297,84.136 76.905 C 84.010 77.513,83.749 78.108,83.554 78.229 C 83.359 78.349,83.200 78.797,83.200 79.224 C 83.200 79.651,83.063 80.000,82.895 80.000 C 82.727 80.000,82.412 80.405,82.195 80.900 C 81.978 81.395,81.395 81.978,80.900 82.195 C 80.405 82.412,80.000 82.727,80.000 82.895 C 80.000 83.063,79.651 83.200,79.224 83.200 C 78.797 83.200,78.349 83.359,78.229 83.554 C 78.108 83.749,77.513 84.010,76.905 84.136 C 76.297 84.261,74.900 84.564,73.800 84.807 C 72.700 85.051,70.540 85.421,69.000 85.630 C 67.460 85.838,64.940 86.185,63.400 86.400 C 61.860 86.615,59.160 86.973,57.400 87.197 C 46.179 88.620,40.836 89.869,36.700 92.034 C 35.253 92.791,34.193 93.407,34.000 93.603 C 33.890 93.714,32.960 94.434,31.933 95.203 C 30.907 95.971,29.775 97.088,29.419 97.685 C 29.063 98.282,28.551 99.002,28.281 99.285 C 28.012 99.568,27.163 101.051,26.395 102.579 L 25.000 105.359 25.039 111.298 C 25.064 115.203,25.235 117.395,25.539 117.699 C 25.792 117.952,26.000 118.754,26.000 119.480 C 26.000 120.206,26.180 120.800,26.400 120.800 C 26.620 120.800,26.800 121.340,26.800 122.000 C 26.800 122.660,26.980 123.200,27.200 123.200 C 27.420 123.200,27.600 123.740,27.600 124.400 C 27.600 125.060,27.780 125.600,28.000 125.600 C 28.220 125.600,28.400 125.872,28.400 126.205 C 28.400 126.538,28.565 127.123,28.767 127.505 C 29.667 129.207,30.800 132.044,30.800 132.596 C 30.800 132.928,30.980 133.200,31.200 133.200 C 31.420 133.200,31.600 133.472,31.600 133.805 C 31.600 134.138,31.759 134.723,31.953 135.105 C 32.148 135.487,32.484 136.250,32.700 136.800 C 32.916 137.350,33.297 138.295,33.546 138.900 C 33.796 139.505,34.162 140.405,34.359 140.900 C 34.557 141.395,34.995 142.433,35.333 143.206 C 40.237 154.417,39.373 158.762,31.000 165.003 C 30.120 165.659,29.310 166.295,29.200 166.417 C 29.090 166.539,28.370 167.071,27.600 167.600 C 26.830 168.129,26.110 168.673,26.000 168.809 C 25.890 168.945,23.820 170.542,21.400 172.359 C 18.980 174.175,16.139 176.400,15.086 177.302 C 14.034 178.205,12.774 179.222,12.286 179.563 C 9.322 181.635,2.800 190.053,2.800 191.808 C 2.800 192.133,2.620 192.400,2.400 192.400 C 2.180 192.400,2.000 192.814,2.000 193.320 C 2.000 193.826,1.797 194.443,1.548 194.692 C 1.262 194.978,1.096 196.924,1.096 200.000 C 1.096 203.076,1.262 205.022,1.548 205.308 C 1.797 205.557,2.000 206.079,2.000 206.468 C 2.000 208.960,8.575 217.669,12.916 220.927 C 13.742 221.547,14.819 222.451,15.309 222.936 C 15.799 223.421,16.830 224.255,17.600 224.789 C 18.370 225.324,19.090 225.861,19.200 225.983 C 19.310 226.105,20.840 227.270,22.600 228.573 C 24.360 229.876,25.890 231.053,26.000 231.190 C 26.110 231.327,26.830 231.871,27.600 232.400 C 28.370 232.929,29.291 233.686,29.647 234.081 C 30.003 234.476,30.472 234.800,30.690 234.800 C 31.435 234.800,37.042 240.659,37.774 242.202 C 38.538 243.812,38.476 248.321,37.659 250.463 C 37.463 250.978,37.075 252.120,36.797 253.000 C 36.520 253.880,35.939 255.410,35.506 256.400 C 35.074 257.390,34.582 258.560,34.414 259.000 C 33.493 261.401,32.410 263.998,31.953 264.895 C 31.759 265.277,31.600 265.862,31.600 266.195 C 31.600 266.528,31.420 266.800,31.200 266.800 C 30.980 266.800,30.800 267.072,30.800 267.404 C 30.800 267.956,29.667 270.793,28.767 272.495 C 28.565 272.877,28.400 273.462,28.400 273.795 C 28.400 274.128,28.220 274.400,28.000 274.400 C 27.780 274.400,27.600 274.940,27.600 275.600 C 27.600 276.260,27.420 276.800,27.200 276.800 C 26.980 276.800,26.800 277.340,26.800 278.000 C 26.800 278.660,26.620 279.200,26.400 279.200 C 26.180 279.200,26.000 279.794,26.000 280.520 C 26.000 281.246,25.792 282.048,25.539 282.301 C 25.235 282.605,25.064 284.791,25.039 288.681 L 25.001 294.600 26.355 297.400 C 27.100 298.940,27.829 300.290,27.974 300.400 C 28.120 300.510,28.674 301.230,29.206 302.000 C 30.408 303.739,30.661 303.992,32.400 305.194 C 33.170 305.726,33.890 306.260,34.000 306.381 C 34.191 306.590,35.180 307.171,36.700 307.966 C 40.836 310.131,46.205 311.395,57.400 312.840 C 62.987 313.561,65.713 313.927,69.000 314.398 C 70.760 314.650,72.876 314.952,73.703 315.070 C 74.529 315.188,75.305 315.445,75.426 315.642 C 75.548 315.839,76.166 316.000,76.800 316.000 C 77.434 316.000,78.064 316.180,78.200 316.400 C 78.336 316.620,78.797 316.800,79.224 316.800 C 79.651 316.800,80.000 316.937,80.000 317.105 C 80.000 317.273,80.405 317.588,80.900 317.805 C 81.395 318.022,81.978 318.605,82.195 319.100 C 82.412 319.595,82.727 320.000,82.895 320.000 C 83.063 320.000,83.200 320.349,83.200 320.776 C 83.200 321.203,83.359 321.651,83.554 321.771 C 83.749 321.892,84.010 322.487,84.136 323.095 C 84.261 323.703,84.556 325.100,84.790 326.200 C 85.233 328.281,85.829 332.321,86.360 336.833 C 86.531 338.281,86.808 339.689,86.976 339.962 C 87.145 340.235,87.329 341.570,87.385 342.929 C 87.602 348.165,89.490 357.574,91.045 361.164 C 91.936 363.220,93.223 365.639,93.619 366.000 C 93.740 366.110,94.274 366.830,94.806 367.600 C 96.008 369.339,96.261 369.592,98.000 370.794 C 98.770 371.326,99.490 371.860,99.600 371.981 C 100.081 372.508,103.343 374.000,104.014 374.000 C 104.420 374.000,104.864 374.180,105.000 374.400 C 105.310 374.901,115.866 374.941,116.174 374.442 C 116.295 374.245,117.071 373.982,117.897 373.858 C 121.407 373.328,122.420 373.092,122.627 372.756 C 122.748 372.560,123.276 372.400,123.800 372.400 C 124.324 372.400,124.864 372.220,125.000 372.000 C 125.136 371.780,125.687 371.600,126.224 371.600 C 126.761 371.600,127.200 371.420,127.200 371.200 C 127.200 370.980,127.472 370.800,127.805 370.800 C 128.138 370.800,128.723 370.641,129.105 370.447 C 129.792 370.097,131.151 369.527,132.900 368.854 C 133.395 368.663,134.250 368.327,134.800 368.107 C 135.350 367.887,136.250 367.527,136.800 367.307 C 137.350 367.087,138.250 366.727,138.800 366.507 C 139.350 366.287,140.295 365.903,140.900 365.654 C 141.505 365.404,142.405 365.044,142.900 364.854 C 143.395 364.663,144.250 364.323,144.800 364.099 C 145.350 363.875,146.610 363.472,147.600 363.204 C 148.590 362.936,149.813 362.555,150.319 362.358 C 155.229 360.443,160.388 362.806,165.098 369.127 C 165.701 369.937,166.295 370.690,166.417 370.800 C 166.539 370.910,167.071 371.630,167.600 372.400 C 168.129 373.170,168.673 373.890,168.809 374.000 C 168.945 374.110,170.542 376.180,172.359 378.600 C 174.175 381.020,176.400 383.861,177.302 384.914 C 178.205 385.966,179.222 387.226,179.563 387.714 C 181.986 391.180,191.247 398.000,193.532 398.000 C 193.921 398.000,194.443 398.203,194.692 398.452 C 195.307 399.067,204.693 399.067,205.308 398.452 C 205.557 398.203,206.079 398.000,206.468 398.000 C 206.857 398.000,207.856 397.612,208.688 397.137 C 209.520 396.663,210.589 396.067,211.065 395.813 C 213.775 394.367,218.798 389.920,220.927 387.084 C 221.547 386.258,222.451 385.181,222.936 384.691 C 223.421 384.201,224.255 383.170,224.789 382.400 C 225.324 381.630,225.867 380.910,225.996 380.800 C 226.125 380.690,227.545 378.800,229.151 376.600 C 239.585 362.315,245.122 359.199,252.895 363.239 C 253.277 363.438,253.780 363.600,254.014 363.600 C 254.248 363.600,255.184 363.960,256.094 364.400 C 257.005 364.840,257.898 365.200,258.079 365.200 C 258.261 365.200,259.262 365.578,260.304 366.040 C 262.524 367.023,263.890 367.594,265.000 368.000 C 265.440 368.161,266.295 368.497,266.900 368.746 C 267.505 368.996,268.495 369.401,269.100 369.647 C 269.705 369.892,270.513 370.252,270.895 370.447 C 271.277 370.641,271.862 370.800,272.195 370.800 C 272.528 370.800,272.800 370.980,272.800 371.200 C 272.800 371.420,273.239 371.600,273.776 371.600 C 274.313 371.600,274.864 371.780,275.000 372.000 C 275.136 372.220,275.676 372.400,276.200 372.400 C 276.724 372.400,277.252 372.560,277.373 372.756 C 277.580 373.092,278.593 373.328,282.103 373.858 C 282.929 373.982,283.705 374.245,283.826 374.442 C 284.120 374.918,294.618 374.904,295.505 374.426 C 295.887 374.220,297.145 373.648,298.300 373.155 C 299.455 372.661,300.400 372.152,300.400 372.023 C 300.400 371.894,301.075 371.370,301.900 370.857 C 302.725 370.345,304.029 369.088,304.797 368.063 C 305.566 367.038,306.286 366.110,306.397 366.000 C 306.593 365.807,307.209 364.747,307.966 363.300 C 310.131 359.164,311.380 353.821,312.803 342.600 C 313.027 340.840,313.385 338.140,313.600 336.600 C 313.815 335.060,314.162 332.540,314.370 331.000 C 314.579 329.460,314.949 327.300,315.193 326.200 C 315.436 325.100,315.739 323.703,315.864 323.095 C 315.990 322.487,316.251 321.892,316.446 321.771 C 316.641 321.651,316.800 321.203,316.800 320.776 C 316.800 320.349,316.937 320.000,317.105 320.000 C 317.273 320.000,317.588 319.595,317.805 319.100 C 318.022 318.605,318.605 318.022,319.100 317.805 C 319.595 317.588,320.000 317.273,320.000 317.105 C 320.000 316.937,320.349 316.800,320.776 316.800 C 321.203 316.800,321.664 316.620,321.800 316.400 C 321.936 316.180,322.566 316.000,323.200 316.000 C 323.834 316.000,324.449 315.844,324.567 315.653 C 324.685 315.462,325.641 315.178,326.691 315.022 C 331.551 314.299,334.964 313.830,342.800 312.808 C 353.796 311.373,359.254 310.084,363.300 307.966 C 364.747 307.209,365.807 306.593,366.000 306.397 C 366.110 306.286,367.040 305.566,368.067 304.797 C 369.093 304.029,370.225 302.912,370.581 302.315 C 370.937 301.718,371.449 300.998,371.719 300.715 C 371.988 300.432,372.837 298.949,373.605 297.421 L 375.000 294.641 374.974 288.715 C 374.957 284.709,374.795 282.635,374.474 282.314 C 374.213 282.053,374.000 281.246,374.000 280.520 C 374.000 279.794,373.820 279.200,373.600 279.200 C 373.380 279.200,373.200 278.660,373.200 278.000 C 373.200 277.340,373.020 276.800,372.800 276.800 C 372.580 276.800,372.400 276.260,372.400 275.600 C 372.400 274.940,372.220 274.400,372.000 274.400 C 371.780 274.400,371.600 274.128,371.600 273.795 C 371.600 273.462,371.435 272.877,371.233 272.495 C 370.333 270.793,369.200 267.956,369.200 267.404 C 369.200 267.072,369.020 266.800,368.800 266.800 C 368.580 266.800,368.400 266.528,368.400 266.195 C 368.400 265.862,368.241 265.277,368.047 264.895 C 367.852 264.513,367.516 263.750,367.300 263.200 C 367.084 262.650,366.703 261.705,366.454 261.100 C 366.204 260.495,365.838 259.595,365.641 259.100 C 365.443 258.605,365.008 257.570,364.674 256.800 C 359.777 245.525,360.628 241.248,369.009 234.992 C 369.884 234.339,370.690 233.705,370.800 233.583 C 370.910 233.461,371.630 232.929,372.400 232.400 C 373.170 231.871,373.890 231.327,374.000 231.190 C 374.110 231.053,375.640 229.876,377.400 228.573 C 379.160 227.270,380.690 226.105,380.800 225.983 C 380.910 225.861,381.630 225.324,382.400 224.789 C 383.170 224.255,384.201 223.421,384.691 222.936 C 385.181 222.451,386.258 221.547,387.084 220.927 C 389.920 218.798,394.367 213.775,395.813 211.065 C 396.067 210.589,396.663 209.520,397.137 208.688 C 397.612 207.856,398.000 206.857,398.000 206.468 C 398.000 206.079,398.203 205.557,398.452 205.308 C 398.738 205.022,398.904 203.076,398.904 200.000 C 398.904 196.924,398.738 194.978,398.452 194.692 C 398.203 194.443,398.000 193.921,398.000 193.532 C 398.000 191.040,391.425 182.331,387.084 179.073 C 386.258 178.453,385.181 177.549,384.691 177.064 C 384.201 176.579,383.170 175.745,382.400 175.211 C 381.630 174.676,380.910 174.139,380.800 174.017 C 380.690 173.895,379.160 172.730,377.400 171.427 C 375.640 170.124,374.110 168.947,374.000 168.810 C 373.890 168.673,373.170 168.129,372.400 167.600 C 371.630 167.071,370.709 166.314,370.353 165.919 C 369.997 165.524,369.528 165.200,369.310 165.200 C 368.566 165.200,362.958 159.342,362.226 157.799 C 361.182 155.597,361.700 150.171,363.249 147.105 C 363.442 146.723,363.600 146.226,363.600 146.001 C 363.600 145.776,363.978 144.738,364.440 143.696 C 365.269 141.825,365.668 140.863,366.346 139.100 C 366.924 137.599,367.673 135.840,368.047 135.105 C 368.241 134.723,368.400 134.138,368.400 133.805 C 368.400 133.472,368.580 133.200,368.800 133.200 C 369.020 133.200,369.200 132.928,369.200 132.595 C 369.200 132.262,369.359 131.677,369.553 131.295 C 369.748 130.913,370.129 130.060,370.400 129.400 C 370.671 128.740,371.052 127.887,371.247 127.505 C 371.441 127.123,371.600 126.538,371.600 126.205 C 371.600 125.872,371.780 125.600,372.000 125.600 C 372.220 125.600,372.400 125.060,372.400 124.400 C 372.400 123.740,372.580 123.200,372.800 123.200 C 373.020 123.200,373.200 122.761,373.200 122.224 C 373.200 121.687,373.380 121.136,373.600 121.000 C 373.820 120.864,374.000 120.169,374.000 119.456 C 374.000 118.743,374.213 117.947,374.474 117.686 C 374.795 117.365,374.957 115.296,374.974 111.306 L 374.999 105.400 373.645 102.600 C 372.900 101.060,372.171 99.710,372.026 99.600 C 371.880 99.490,371.326 98.770,370.794 98.000 C 369.592 96.261,369.339 96.008,367.600 94.806 C 366.830 94.274,366.110 93.740,366.000 93.619 C 365.809 93.410,364.820 92.829,363.300 92.034 C 359.164 89.869,353.821 88.620,342.600 87.197 C 340.840 86.973,338.230 86.625,336.800 86.423 C 335.370 86.221,332.850 85.867,331.200 85.636 C 329.550 85.405,327.300 85.024,326.200 84.790 C 325.100 84.556,323.703 84.261,323.095 84.136 C 322.487 84.010,321.892 83.749,321.771 83.554 C 321.651 83.359,321.203 83.200,320.776 83.200 C 320.349 83.200,320.000 83.063,320.000 82.895 C 320.000 82.727,319.595 82.412,319.100 82.195 C 318.605 81.978,318.022 81.395,317.805 80.900 C 317.588 80.405,317.273 80.000,317.105 80.000 C 316.937 80.000,316.800 79.651,316.800 79.224 C 316.800 78.797,316.620 78.336,316.400 78.200 C 316.180 78.064,316.000 77.434,316.000 76.800 C 316.000 76.166,315.844 75.551,315.653 75.433 C 315.462 75.315,315.178 74.359,315.022 73.309 C 314.395 69.091,313.417 62.053,312.784 57.200 C 311.304 45.856,310.119 40.813,307.966 36.700 C 307.209 35.253,306.593 34.193,306.397 34.000 C 306.286 33.890,305.566 32.960,304.797 31.933 C 304.029 30.907,302.912 29.775,302.315 29.419 C 301.718 29.063,300.998 28.553,300.715 28.286 C 299.905 27.521,296.795 26.000,296.042 26.000 C 295.667 26.000,295.170 25.810,294.938 25.578 C 294.376 25.016,284.391 25.317,282.000 25.968 C 281.010 26.237,279.613 26.555,278.896 26.673 C 278.179 26.792,277.494 27.049,277.373 27.244 C 277.252 27.440,276.724 27.600,276.200 27.600 C 275.676 27.600,275.136 27.780,275.000 28.000 C 274.864 28.220,274.313 28.400,273.776 28.400 C 273.239 28.400,272.800 28.580,272.800 28.800 C 272.800 29.020,272.528 29.200,272.195 29.200 C 271.862 29.200,271.277 29.359,270.895 29.553 C 270.513 29.748,269.750 30.084,269.200 30.300 C 268.650 30.516,267.705 30.897,267.100 31.146 C 266.495 31.396,265.550 31.780,265.000 32.000 C 262.553 32.979,261.755 33.316,261.105 33.647 C 260.723 33.841,260.048 34.000,259.605 34.000 C 259.162 34.000,258.800 34.180,258.800 34.400 C 258.800 34.620,258.528 34.800,258.196 34.800 C 257.863 34.800,256.828 35.136,255.896 35.548 C 254.963 35.959,253.390 36.511,252.400 36.775 C 251.410 37.038,250.047 37.422,249.372 37.627 C 246.895 38.379,242.224 38.090,240.954 37.106 C 239.349 35.864,236.215 32.635,234.902 30.873 C 234.299 30.063,233.705 29.310,233.583 29.200 C 233.461 29.090,232.929 28.370,232.400 27.600 C 231.871 26.830,231.327 26.110,231.190 26.000 C 231.053 25.890,229.876 24.360,228.573 22.600 C 227.270 20.840,226.105 19.310,225.983 19.200 C 225.861 19.090,225.324 18.370,224.789 17.600 C 224.255 16.830,223.421 15.799,222.936 15.309 C 222.451 14.819,221.547 13.742,220.927 12.916 C 217.669 8.575,208.960 2.000,206.468 2.000 C 206.079 2.000,205.589 1.842,205.380 1.649 C 204.917 1.223,199.748 0.879,197.000 1.093 M202.938 17.668 C 205.832 19.658,210.587 24.999,216.539 32.942 C 222.249 40.562,224.927 43.837,227.000 45.731 C 230.405 48.843,231.162 49.498,232.211 50.235 C 234.100 51.561,238.624 53.600,239.677 53.600 C 240.207 53.600,240.833 53.793,241.070 54.030 C 241.756 54.716,252.142 53.958,252.980 53.161 C 253.189 52.963,253.853 52.800,254.456 52.800 C 255.059 52.800,255.664 52.620,255.800 52.400 C 255.936 52.180,256.476 52.000,257.000 52.000 C 257.524 52.000,258.064 51.820,258.200 51.600 C 258.336 51.380,258.876 51.200,259.400 51.200 C 259.924 51.200,260.464 51.020,260.600 50.800 C 260.736 50.580,261.109 50.400,261.428 50.400 C 261.747 50.400,262.862 50.022,263.904 49.560 C 264.947 49.098,266.160 48.576,266.600 48.400 C 267.040 48.224,268.253 47.702,269.296 47.240 C 270.338 46.778,271.339 46.400,271.521 46.400 C 271.702 46.400,272.559 46.061,273.425 45.647 C 276.018 44.407,282.707 42.000,283.559 42.000 C 283.996 42.000,284.464 41.820,284.600 41.600 C 285.494 40.153,293.200 41.463,293.200 43.062 C 293.200 43.358,293.380 43.600,293.600 43.600 C 293.820 43.600,294.000 44.039,294.000 44.576 C 294.000 45.113,294.159 45.651,294.354 45.771 C 294.549 45.892,294.827 46.577,294.972 47.295 C 295.678 50.784,296.065 53.193,296.242 55.200 C 296.349 56.410,296.600 57.760,296.801 58.200 C 297.002 58.640,297.260 60.080,297.373 61.400 C 297.710 65.325,298.318 70.058,298.774 72.300 C 299.536 76.054,300.029 78.574,300.261 79.904 C 300.386 80.621,300.649 81.306,300.844 81.427 C 301.040 81.548,301.200 81.999,301.200 82.429 C 301.200 82.859,301.359 83.523,301.553 83.905 C 301.748 84.287,302.149 85.140,302.446 85.800 C 304.779 90.992,309.022 95.236,314.200 97.556 C 314.860 97.851,315.713 98.252,316.095 98.447 C 316.477 98.641,317.141 98.800,317.571 98.800 C 318.001 98.800,318.452 98.960,318.573 99.156 C 318.694 99.351,319.379 99.614,320.096 99.739 C 321.426 99.971,323.946 100.464,327.700 101.226 C 329.942 101.682,334.675 102.290,338.600 102.627 C 339.920 102.740,341.360 102.998,341.800 103.199 C 342.240 103.400,343.590 103.656,344.800 103.769 C 349.061 104.165,351.004 104.481,351.380 104.839 C 351.589 105.037,352.253 105.200,352.856 105.200 C 353.459 105.200,354.064 105.380,354.200 105.600 C 354.336 105.820,354.887 106.000,355.424 106.000 C 355.961 106.000,356.400 106.180,356.400 106.400 C 356.400 106.620,356.611 106.800,356.869 106.800 C 358.525 106.800,359.885 114.082,358.400 115.000 C 358.180 115.136,358.000 115.746,358.000 116.355 C 358.000 117.374,356.512 121.661,355.592 123.295 C 355.376 123.677,355.200 124.180,355.200 124.414 C 355.200 124.648,354.840 125.584,354.400 126.494 C 353.960 127.405,353.600 128.291,353.600 128.463 C 353.600 128.635,353.131 129.817,352.557 131.088 C 351.464 133.510,350.595 135.519,349.913 137.200 C 349.689 137.750,349.348 138.513,349.153 138.895 C 348.959 139.277,348.800 139.941,348.800 140.371 C 348.800 140.801,348.620 141.264,348.400 141.400 C 348.180 141.536,348.000 142.076,348.000 142.600 C 348.000 143.124,347.820 143.664,347.600 143.800 C 347.380 143.936,347.200 144.451,347.200 144.944 C 347.200 145.437,347.038 146.011,346.841 146.220 C 345.985 147.126,345.227 158.587,345.974 159.334 C 346.208 159.568,346.400 160.176,346.400 160.685 C 346.400 161.597,346.555 162.023,347.607 164.000 C 349.906 168.318,349.740 168.086,353.200 171.844 C 355.814 174.684,359.933 178.192,365.400 182.234 C 368.040 184.185,370.396 185.966,370.637 186.191 C 370.877 186.416,371.674 187.050,372.409 187.600 C 373.143 188.150,374.336 189.185,375.059 189.900 C 375.782 190.615,376.529 191.200,376.720 191.200 C 377.142 191.200,381.068 195.320,382.304 197.062 C 383.502 198.748,383.502 201.252,382.304 202.938 C 381.068 204.680,377.142 208.800,376.720 208.800 C 376.529 208.800,375.763 209.411,375.016 210.157 C 374.270 210.903,372.971 212.027,372.130 212.655 C 371.288 213.282,370.510 213.893,370.400 214.012 C 370.290 214.130,368.040 215.826,365.400 217.781 C 358.384 222.974,354.694 226.283,350.553 231.096 C 349.794 231.978,349.207 232.956,347.670 235.900 C 346.524 238.095,346.400 238.456,346.400 239.595 C 346.400 240.258,346.209 240.800,345.976 240.800 C 345.190 240.800,345.996 252.885,346.841 253.780 C 347.038 253.989,347.200 254.563,347.200 255.056 C 347.200 255.549,347.380 256.064,347.600 256.200 C 347.820 256.336,348.000 256.876,348.000 257.400 C 348.000 257.924,348.180 258.464,348.400 258.600 C 348.620 258.736,348.800 259.287,348.800 259.824 C 348.800 260.361,348.980 260.800,349.200 260.800 C 349.420 260.800,349.600 261.132,349.600 261.539 C 349.600 261.945,349.850 262.800,350.156 263.439 C 350.462 264.077,350.981 265.230,351.310 266.000 C 351.638 266.770,352.288 268.253,352.753 269.296 C 353.219 270.338,353.600 271.339,353.600 271.521 C 353.600 271.702,353.960 272.595,354.400 273.506 C 354.840 274.416,355.200 275.404,355.200 275.701 C 355.200 275.997,355.356 276.411,355.546 276.620 C 356.163 277.297,358.000 282.586,358.000 283.685 C 358.000 284.272,358.180 284.864,358.400 285.000 C 359.832 285.885,358.527 293.200,356.938 293.200 C 356.642 293.200,356.400 293.380,356.400 293.600 C 356.400 293.820,355.961 294.000,355.424 294.000 C 354.887 294.000,354.336 294.180,354.200 294.400 C 354.064 294.620,353.434 294.800,352.800 294.800 C 352.166 294.800,351.536 294.980,351.400 295.200 C 351.264 295.420,350.274 295.600,349.200 295.600 C 348.126 295.600,347.136 295.780,347.000 296.000 C 346.864 296.220,345.629 296.400,344.256 296.400 C 342.883 296.400,341.589 296.565,341.380 296.768 C 341.171 296.970,339.830 297.233,338.400 297.353 C 336.970 297.472,334.450 297.755,332.800 297.980 C 331.150 298.205,328.810 298.499,327.600 298.632 C 326.390 298.765,325.229 299.037,325.020 299.237 C 324.811 299.437,324.054 299.600,323.339 299.600 C 322.623 299.600,321.624 299.757,321.119 299.949 C 320.613 300.141,319.480 300.513,318.600 300.775 C 310.879 303.080,305.394 307.639,302.446 314.200 C 302.149 314.860,301.748 315.713,301.553 316.095 C 301.359 316.477,301.200 317.141,301.200 317.571 C 301.200 318.001,301.020 318.464,300.800 318.600 C 300.580 318.736,300.400 319.366,300.400 320.000 C 300.400 320.634,300.220 321.264,300.000 321.400 C 299.780 321.536,299.600 322.411,299.600 323.344 C 299.600 324.277,299.437 325.211,299.239 325.420 C 299.040 325.629,298.765 326.700,298.628 327.800 C 298.141 331.703,297.611 335.843,297.195 339.000 C 296.964 340.760,296.675 343.280,296.553 344.600 C 296.432 345.920,296.168 347.171,295.966 347.380 C 295.765 347.589,295.600 348.386,295.600 349.152 C 295.600 350.519,295.042 352.726,294.351 354.095 C 294.158 354.477,294.000 355.152,294.000 355.595 C 294.000 356.038,293.820 356.400,293.600 356.400 C 293.380 356.400,293.200 356.611,293.200 356.869 C 293.200 358.290,291.915 358.800,288.338 358.800 C 286.246 358.800,284.800 358.637,284.800 358.400 C 284.800 358.180,284.361 358.000,283.824 358.000 C 282.749 358.000,277.225 356.127,276.620 355.558 C 276.411 355.361,276.004 355.200,275.716 355.200 C 275.427 355.200,274.338 354.822,273.296 354.360 C 272.253 353.898,271.040 353.377,270.600 353.201 C 270.160 353.025,269.170 352.608,268.400 352.274 C 267.630 351.939,266.190 351.354,265.200 350.973 C 264.210 350.592,263.229 350.127,263.020 349.940 C 262.811 349.753,262.237 349.600,261.744 349.600 C 261.251 349.600,260.736 349.420,260.600 349.200 C 260.464 348.980,259.913 348.800,259.376 348.800 C 258.839 348.800,258.400 348.620,258.400 348.400 C 258.400 348.180,257.860 348.000,257.200 348.000 C 256.540 348.000,256.000 347.840,256.000 347.644 C 256.000 347.302,254.878 347.034,251.400 346.544 C 250.520 346.420,249.629 346.156,249.420 345.959 C 248.889 345.458,240.800 345.496,240.800 346.000 C 240.800 346.220,240.258 346.400,239.595 346.400 C 238.932 346.400,238.032 346.580,237.595 346.800 C 233.171 349.027,231.599 350.036,229.400 352.063 C 228.520 352.874,227.436 353.867,226.991 354.269 C 225.370 355.734,221.251 360.712,217.781 365.400 C 215.826 368.040,214.130 370.290,214.012 370.400 C 213.893 370.510,213.282 371.288,212.655 372.130 C 212.027 372.971,210.903 374.270,210.157 375.016 C 209.411 375.763,208.800 376.529,208.800 376.720 C 208.800 377.142,204.680 381.068,202.938 382.304 C 201.252 383.502,198.748 383.502,197.062 382.304 C 195.320 381.068,191.200 377.142,191.200 376.720 C 191.200 376.529,190.615 375.782,189.900 375.059 C 189.185 374.336,188.150 373.143,187.600 372.409 C 187.050 371.674,186.375 370.845,186.100 370.565 C 185.825 370.286,185.600 369.879,185.600 369.662 C 185.600 369.445,185.455 369.207,185.278 369.133 C 185.101 369.060,183.543 367.110,181.816 364.800 C 176.960 358.307,173.565 354.563,168.856 350.511 C 167.385 349.245,161.705 346.400,160.649 346.400 C 160.160 346.400,159.568 346.208,159.333 345.973 C 158.595 345.235,147.519 345.991,146.620 346.841 C 146.411 347.038,145.883 347.200,145.447 347.200 C 144.685 347.200,140.885 348.389,138.800 349.280 C 138.250 349.515,137.440 349.845,137.000 350.013 C 135.850 350.452,133.744 351.359,131.088 352.557 C 129.817 353.131,128.548 353.600,128.268 353.600 C 127.989 353.600,127.589 353.757,127.380 353.949 C 127.013 354.285,118.892 357.415,115.972 358.345 C 112.261 359.527,106.800 358.689,106.800 356.938 C 106.800 356.642,106.620 356.400,106.400 356.400 C 106.180 356.400,106.000 355.961,106.000 355.424 C 106.000 354.887,105.820 354.336,105.600 354.200 C 105.380 354.064,105.200 353.459,105.200 352.856 C 105.200 352.253,105.037 351.589,104.839 351.380 C 104.481 351.004,104.165 349.061,103.769 344.800 C 103.656 343.590,103.400 342.240,103.199 341.800 C 102.998 341.360,102.740 339.920,102.627 338.600 C 102.290 334.675,101.682 329.942,101.226 327.700 C 100.464 323.946,99.971 321.426,99.739 320.096 C 99.614 319.379,99.351 318.694,99.156 318.573 C 98.960 318.452,98.800 318.001,98.800 317.571 C 98.800 317.141,98.641 316.477,98.447 316.095 C 98.252 315.713,97.851 314.860,97.554 314.200 C 95.221 309.008,90.978 304.764,85.800 302.444 C 85.140 302.149,84.287 301.748,83.905 301.553 C 83.523 301.359,82.859 301.200,82.429 301.200 C 81.999 301.200,81.536 301.020,81.400 300.800 C 81.264 300.580,80.659 300.400,80.056 300.400 C 79.453 300.400,78.789 300.237,78.580 300.039 C 78.371 299.840,77.390 299.581,76.400 299.462 C 75.410 299.344,73.610 299.045,72.400 298.797 C 70.076 298.322,65.403 297.717,61.400 297.373 C 60.080 297.260,58.640 297.002,58.200 296.801 C 57.760 296.600,56.410 296.344,55.200 296.231 C 50.939 295.835,48.996 295.519,48.620 295.161 C 48.411 294.963,47.747 294.800,47.144 294.800 C 46.541 294.800,45.936 294.620,45.800 294.400 C 45.664 294.180,45.113 294.000,44.576 294.000 C 44.039 294.000,43.600 293.820,43.600 293.600 C 43.600 293.380,43.305 293.200,42.944 293.200 C 41.445 293.200,40.239 285.841,41.600 285.000 C 41.820 284.864,42.000 284.221,42.000 283.571 C 42.000 282.921,42.174 282.077,42.387 281.695 C 42.864 280.837,44.800 275.839,44.800 275.464 C 44.800 275.314,45.178 274.338,45.640 273.296 C 46.102 272.253,46.619 271.040,46.789 270.600 C 46.959 270.160,47.504 268.900,48.000 267.800 C 48.496 266.700,49.059 265.395,49.251 264.900 C 49.963 263.066,50.503 261.781,50.847 261.105 C 51.041 260.723,51.200 260.059,51.200 259.629 C 51.200 259.199,51.380 258.736,51.600 258.600 C 51.820 258.464,52.000 257.924,52.000 257.400 C 52.000 256.876,52.180 256.336,52.400 256.200 C 52.620 256.064,52.800 255.549,52.800 255.056 C 52.800 254.563,52.962 253.989,53.159 253.780 C 54.015 252.874,54.773 241.413,54.026 240.666 C 53.792 240.432,53.600 239.824,53.600 239.315 C 53.600 238.439,53.462 238.068,52.330 235.900 C 50.623 232.630,50.005 231.700,48.225 229.720 C 44.034 225.061,42.005 223.284,34.600 217.783 C 31.960 215.822,29.604 214.033,29.363 213.809 C 29.123 213.584,28.326 212.950,27.591 212.400 C 26.857 211.850,25.664 210.815,24.941 210.100 C 24.218 209.385,23.471 208.800,23.280 208.800 C 23.090 208.800,21.957 207.765,20.763 206.500 C 15.341 200.756,15.341 199.244,20.763 193.500 C 21.957 192.235,23.090 191.200,23.280 191.200 C 23.471 191.200,24.218 190.615,24.941 189.900 C 25.664 189.185,26.857 188.150,27.591 187.600 C 28.326 187.050,29.155 186.375,29.435 186.100 C 29.714 185.825,30.121 185.600,30.338 185.600 C 30.555 185.600,30.793 185.445,30.867 185.256 C 30.940 185.067,33.249 183.231,35.997 181.177 C 45.262 174.253,50.924 168.272,52.638 163.600 C 52.759 163.270,53.025 162.687,53.229 162.305 C 53.433 161.923,53.600 161.194,53.600 160.685 C 53.600 160.176,53.792 159.568,54.026 159.334 C 54.773 158.587,54.015 147.126,53.159 146.220 C 52.962 146.011,52.800 145.437,52.800 144.944 C 52.800 144.451,52.620 143.936,52.400 143.800 C 52.180 143.664,52.000 143.124,52.000 142.600 C 52.000 142.076,51.820 141.536,51.600 141.400 C 51.380 141.264,51.200 140.801,51.200 140.371 C 51.200 139.941,51.041 139.277,50.847 138.895 C 50.503 138.219,49.963 136.934,49.251 135.100 C 49.059 134.605,48.496 133.300,48.000 132.200 C 47.156 130.328,46.917 129.760,45.893 127.200 C 45.015 125.005,44.819 124.496,43.811 121.800 C 43.235 120.260,42.592 118.587,42.382 118.081 C 42.172 117.576,42.000 116.731,42.000 116.205 C 42.000 115.678,41.820 115.136,41.600 115.000 C 40.168 114.115,41.473 106.800,43.062 106.800 C 43.358 106.800,43.600 106.620,43.600 106.400 C 43.600 106.180,44.039 106.000,44.576 106.000 C 45.113 106.000,45.664 105.820,45.800 105.600 C 45.936 105.380,46.541 105.200,47.144 105.200 C 47.747 105.200,48.411 105.038,48.620 104.841 C 49.029 104.455,51.173 104.087,55.000 103.746 C 56.320 103.629,57.571 103.368,57.780 103.166 C 57.989 102.965,59.438 102.800,61.000 102.800 C 62.562 102.800,64.011 102.634,64.220 102.431 C 64.429 102.228,65.860 101.972,67.400 101.861 C 68.940 101.751,71.190 101.474,72.400 101.246 C 77.659 100.255,78.677 100.045,80.000 99.679 C 87.300 97.660,91.630 94.753,95.904 89.000 C 96.847 87.731,98.885 82.872,99.679 80.000 C 100.045 78.677,100.255 77.659,101.246 72.400 C 101.474 71.190,101.751 68.940,101.861 67.400 C 101.972 65.860,102.228 64.429,102.431 64.220 C 102.634 64.011,102.800 62.562,102.800 61.000 C 102.800 59.438,102.965 57.989,103.166 57.780 C 103.368 57.571,103.629 56.320,103.746 55.000 C 104.087 51.173,104.455 49.029,104.841 48.620 C 105.038 48.411,105.200 47.747,105.200 47.144 C 105.200 46.541,105.380 45.936,105.600 45.800 C 105.820 45.664,106.000 45.113,106.000 44.576 C 106.000 44.039,106.180 43.600,106.400 43.600 C 106.620 43.600,106.800 43.389,106.800 43.131 C 106.800 41.466,114.473 40.100,115.400 41.600 C 115.536 41.820,116.004 42.000,116.441 42.000 C 117.540 42.000,126.593 45.404,129.295 46.833 C 129.677 47.035,130.352 47.200,130.795 47.200 C 131.238 47.200,131.600 47.344,131.600 47.520 C 131.600 47.695,132.275 48.078,133.100 48.371 C 133.925 48.663,135.309 49.239,136.175 49.651 C 137.041 50.063,138.066 50.400,138.452 50.400 C 138.837 50.400,139.264 50.580,139.400 50.800 C 139.536 51.020,140.087 51.200,140.624 51.200 C 141.161 51.200,141.600 51.380,141.600 51.600 C 141.600 51.820,142.140 52.000,142.800 52.000 C 143.460 52.000,144.000 52.160,144.000 52.356 C 144.000 52.552,144.585 52.812,145.300 52.934 C 146.015 53.056,147.500 53.368,148.600 53.627 C 151.401 54.288,158.797 54.563,159.333 54.027 C 159.568 53.792,160.176 53.600,160.685 53.600 C 161.561 53.600,161.932 53.462,164.100 52.330 C 167.370 50.623,168.300 50.005,170.280 48.225 C 174.531 44.401,176.612 42.100,180.613 36.800 C 181.692 35.370,182.806 33.962,183.088 33.671 C 183.369 33.381,183.600 33.019,183.600 32.867 C 183.600 32.716,184.010 32.144,184.511 31.596 C 185.013 31.048,185.865 29.970,186.406 29.200 C 187.750 27.285,188.385 26.515,189.900 24.960 C 190.615 24.227,191.200 23.471,191.200 23.280 C 191.200 22.884,195.203 19.041,197.000 17.713 C 198.611 16.521,201.242 16.501,202.938 17.668 M93.435 157.697 C 91.530 158.200,89.775 159.697,88.759 161.684 C 88.030 163.110,88.000 164.623,88.000 200.049 L 88.000 236.930 88.962 238.565 C 91.724 243.260,97.303 244.058,100.978 240.283 C 103.567 237.624,103.623 237.250,103.600 222.743 C 103.548 190.059,103.521 191.200,104.353 191.200 C 104.766 191.200,105.614 191.875,106.236 192.700 C 106.858 193.525,107.509 194.260,107.683 194.333 C 107.858 194.407,108.000 194.641,108.000 194.855 C 108.000 195.069,108.539 195.819,109.198 196.522 C 109.857 197.225,110.397 197.945,110.398 198.122 C 110.399 198.299,110.939 199.019,111.598 199.722 C 112.257 200.425,112.797 201.137,112.798 201.304 C 112.799 201.471,113.340 202.172,114.000 202.863 C 114.660 203.554,115.200 204.274,115.200 204.463 C 115.200 204.652,115.740 205.372,116.400 206.063 C 117.060 206.754,117.600 207.469,117.600 207.652 C 117.600 207.836,118.044 208.484,118.587 209.093 C 119.130 209.702,120.758 211.820,122.205 213.800 C 123.652 215.780,125.055 217.670,125.323 218.000 C 125.592 218.330,126.250 219.230,126.786 220.000 C 127.323 220.770,127.869 221.490,128.000 221.600 C 128.131 221.710,128.671 222.430,129.200 223.200 C 129.729 223.970,130.267 224.690,130.396 224.800 C 130.690 225.051,139.510 236.907,140.811 238.800 C 144.723 244.491,152.132 243.856,155.169 237.569 C 156.151 235.538,156.509 166.103,155.550 163.719 C 154.522 161.162,154.140 160.539,152.846 159.320 C 150.853 157.442,144.000 156.679,144.000 158.336 C 144.000 158.484,143.460 158.844,142.800 159.136 C 142.069 159.459,141.600 159.967,141.600 160.434 C 141.600 160.855,141.439 161.200,141.243 161.200 C 140.333 161.200,140.187 164.059,140.000 185.595 C 139.770 211.992,139.871 211.413,136.406 206.400 C 135.874 205.630,135.334 204.910,135.205 204.800 C 134.924 204.559,128.563 195.974,127.203 194.000 C 126.673 193.230,126.131 192.510,126.000 192.400 C 125.869 192.290,125.329 191.570,124.800 190.800 C 124.271 190.030,123.739 189.310,123.618 189.200 C 123.497 189.090,122.589 187.920,121.600 186.600 C 120.611 185.280,119.703 184.110,119.582 184.000 C 119.461 183.890,118.929 183.170,118.400 182.400 C 117.871 181.630,117.331 180.910,117.200 180.800 C 117.069 180.690,116.523 179.970,115.986 179.200 C 115.450 178.430,114.792 177.530,114.523 177.200 C 114.255 176.870,112.847 174.980,111.394 173.000 C 109.941 171.020,108.536 169.130,108.271 168.800 C 108.006 168.470,107.350 167.570,106.814 166.800 C 106.277 166.030,105.731 165.310,105.600 165.200 C 105.469 165.090,104.932 164.370,104.408 163.600 C 102.402 160.656,99.491 158.144,97.523 157.661 C 95.401 157.140,95.545 157.139,93.435 157.697 M180.567 157.651 C 178.311 158.162,176.120 160.283,175.173 162.873 C 173.970 166.165,173.970 233.835,175.173 237.127 C 176.122 239.723,178.244 241.765,180.613 242.362 C 183.030 242.970,217.002 242.962,219.424 242.352 C 225.164 240.907,227.140 233.567,222.924 229.351 C 220.410 226.837,220.151 226.800,205.000 226.800 C 193.853 226.800,191.213 226.697,190.841 226.249 C 190.522 225.865,190.416 223.118,190.492 217.149 L 190.600 208.600 203.985 208.495 C 212.103 208.431,217.526 208.234,217.765 207.995 C 217.982 207.778,218.672 207.600,219.297 207.600 C 219.922 207.600,220.820 207.240,221.292 206.800 C 221.764 206.360,222.387 206.000,222.675 206.000 C 222.964 206.000,223.200 205.764,223.200 205.475 C 223.200 205.187,223.532 204.595,223.937 204.159 C 225.695 202.272,225.695 197.728,223.937 195.841 C 223.532 195.405,223.200 194.813,223.200 194.525 C 223.200 194.236,222.964 194.000,222.675 194.000 C 222.387 194.000,221.764 193.640,221.292 193.200 C 220.820 192.760,219.922 192.400,219.297 192.400 C 218.672 192.400,217.982 192.222,217.765 192.005 C 217.526 191.766,212.103 191.569,203.985 191.505 L 190.600 191.400 190.492 182.851 C 190.416 176.882,190.522 174.135,190.841 173.751 C 191.213 173.303,193.853 173.200,205.000 173.200 C 221.756 173.200,223.134 172.789,224.946 167.249 C 225.922 164.264,223.784 158.800,221.640 158.800 C 221.398 158.800,221.200 158.635,221.200 158.433 C 221.200 157.284,185.240 156.592,180.567 157.651 M248.654 158.177 C 246.961 159.098,244.800 161.622,244.800 162.678 C 244.800 163.185,244.620 163.600,244.400 163.600 C 244.180 163.600,244.000 164.309,244.000 165.176 C 244.000 166.043,244.180 166.864,244.400 167.000 C 244.620 167.136,244.800 167.856,244.800 168.600 C 244.800 169.344,244.980 170.064,245.200 170.200 C 245.420 170.336,245.600 171.056,245.600 171.800 C 245.600 172.544,245.780 173.264,246.000 173.400 C 246.220 173.536,246.400 174.256,246.400 175.000 C 246.400 175.744,246.580 176.464,246.800 176.600 C 247.020 176.736,247.200 177.456,247.200 178.200 C 247.200 178.944,247.360 179.652,247.556 179.773 C 247.751 179.894,248.008 180.579,248.127 181.296 C 248.245 182.013,248.527 183.320,248.753 184.200 C 248.979 185.080,249.352 186.565,249.582 187.500 C 250.114 189.664,250.696 191.990,251.182 193.900 C 251.542 195.314,251.908 196.793,252.768 200.300 C 252.970 201.125,254.226 206.120,255.560 211.400 C 256.893 216.680,257.987 221.484,257.992 222.076 C 257.996 222.668,258.180 223.264,258.400 223.400 C 258.620 223.536,258.800 224.256,258.800 225.000 C 258.800 225.744,258.980 226.464,259.200 226.600 C 259.420 226.736,259.600 227.456,259.600 228.200 C 259.600 228.944,259.780 229.664,260.000 229.800 C 260.220 229.936,260.400 230.429,260.400 230.895 C 260.400 231.362,260.573 232.296,260.784 232.972 C 260.995 233.647,261.395 235.055,261.671 236.100 C 261.948 237.145,262.315 238.000,262.487 238.000 C 262.659 238.000,262.800 238.278,262.800 238.618 C 262.800 240.989,268.129 243.233,271.717 242.372 C 275.047 241.573,276.335 239.874,278.216 233.800 C 278.829 231.820,279.482 230.029,279.666 229.820 C 279.849 229.611,280.000 229.037,280.000 228.544 C 280.000 228.051,280.180 227.536,280.400 227.400 C 280.620 227.264,280.800 226.724,280.800 226.200 C 280.800 225.676,280.980 225.136,281.200 225.000 C 281.420 224.864,281.600 224.324,281.600 223.800 C 281.600 223.276,281.780 222.736,282.000 222.600 C 282.220 222.464,282.400 221.924,282.400 221.400 C 282.400 220.876,282.580 220.336,282.800 220.200 C 283.020 220.064,283.200 219.524,283.200 219.000 C 283.200 218.476,283.380 217.936,283.600 217.800 C 283.820 217.664,284.000 217.124,284.000 216.600 C 284.000 216.076,284.180 215.536,284.400 215.400 C 284.620 215.264,284.800 214.724,284.800 214.200 C 284.800 213.676,284.980 213.136,285.200 213.000 C 285.420 212.864,285.600 212.391,285.600 211.948 C 285.600 210.960,286.640 209.853,287.323 210.115 C 287.599 210.221,288.516 212.443,289.361 215.054 C 290.206 217.664,291.055 220.113,291.248 220.495 C 291.442 220.877,291.600 221.642,291.600 222.195 C 291.600 222.748,291.780 223.200,292.000 223.200 C 292.220 223.200,292.400 223.740,292.400 224.400 C 292.400 225.060,292.580 225.600,292.800 225.600 C 293.020 225.600,293.200 226.039,293.200 226.576 C 293.200 227.113,293.380 227.664,293.600 227.800 C 293.820 227.936,294.000 228.476,294.000 229.000 C 294.000 229.524,294.180 230.064,294.400 230.200 C 294.620 230.336,294.800 230.876,294.800 231.400 C 294.800 231.924,294.980 232.464,295.200 232.600 C 295.420 232.736,295.600 233.276,295.600 233.800 C 295.600 234.324,295.780 234.864,296.000 235.000 C 296.220 235.136,296.400 235.687,296.400 236.224 C 296.400 236.761,296.580 237.200,296.800 237.200 C 297.020 237.200,297.200 237.494,297.200 237.853 C 297.200 240.483,302.912 243.321,306.299 242.372 C 310.036 241.326,311.414 239.265,313.167 232.100 C 313.866 229.244,314.456 226.995,314.827 225.772 C 315.032 225.096,315.200 224.162,315.200 223.695 C 315.200 223.229,315.380 222.736,315.600 222.600 C 315.820 222.464,316.000 221.744,316.000 221.000 C 316.000 220.256,316.180 219.536,316.400 219.400 C 316.620 219.264,316.800 218.544,316.800 217.800 C 316.800 217.056,316.980 216.336,317.200 216.200 C 317.420 216.064,317.600 215.344,317.600 214.600 C 317.600 213.856,317.780 213.136,318.000 213.000 C 318.220 212.864,318.400 212.144,318.400 211.400 C 318.400 210.656,318.580 209.936,318.800 209.800 C 319.020 209.664,319.200 208.944,319.200 208.200 C 319.200 207.456,319.380 206.736,319.600 206.600 C 319.820 206.464,320.000 205.744,320.000 205.000 C 320.000 204.256,320.180 203.536,320.400 203.400 C 320.620 203.264,320.800 202.544,320.800 201.800 C 320.800 201.056,320.960 200.348,321.156 200.227 C 321.351 200.106,321.608 199.421,321.727 198.704 C 321.845 197.987,322.135 196.635,322.371 195.700 C 322.607 194.765,322.993 193.235,323.229 192.300 C 323.465 191.365,323.755 190.013,323.873 189.296 C 323.992 188.579,324.249 187.894,324.444 187.773 C 324.640 187.652,324.800 187.081,324.800 186.505 C 324.800 185.928,324.976 184.904,325.191 184.228 C 325.407 183.553,325.961 181.380,326.423 179.400 C 327.577 174.455,327.966 172.862,328.470 171.000 C 329.222 168.222,329.333 163.016,328.667 161.735 C 327.898 160.257,326.617 158.800,326.086 158.800 C 325.856 158.800,325.592 158.575,325.500 158.300 C 325.383 157.950,324.261 157.800,321.752 157.801 C 317.152 157.802,314.485 160.232,313.413 165.400 C 313.276 166.060,312.979 167.320,312.753 168.200 C 312.527 169.080,312.245 170.387,312.127 171.104 C 312.008 171.821,311.751 172.506,311.556 172.627 C 311.360 172.748,311.200 173.456,311.200 174.200 C 311.200 174.944,311.020 175.664,310.800 175.800 C 310.580 175.936,310.400 176.656,310.400 177.400 C 310.400 178.144,310.220 178.864,310.000 179.000 C 309.780 179.136,309.600 179.856,309.600 180.600 C 309.600 181.344,309.420 182.064,309.200 182.200 C 308.980 182.336,308.800 183.056,308.800 183.800 C 308.800 184.544,308.644 185.249,308.453 185.367 C 308.262 185.485,308.003 186.351,307.877 187.291 C 307.750 188.231,307.173 190.890,306.595 193.200 C 306.016 195.510,305.362 198.120,305.142 199.000 C 304.922 199.880,304.646 201.179,304.529 201.886 C 304.161 204.104,302.000 204.698,302.000 202.581 C 302.000 202.067,301.820 201.536,301.600 201.400 C 301.380 201.264,301.200 200.801,301.200 200.371 C 301.200 199.941,301.022 199.277,300.805 198.895 C 300.588 198.513,299.071 194.150,297.433 189.200 C 293.650 177.768,292.686 176.000,290.238 176.000 C 289.887 176.000,289.600 175.820,289.600 175.600 C 289.600 175.034,285.734 175.103,284.028 175.700 C 282.366 176.282,280.434 178.094,279.653 179.803 C 279.353 180.461,278.948 181.313,278.753 181.695 C 278.559 182.077,278.400 182.741,278.400 183.171 C 278.400 183.601,278.220 184.064,278.000 184.200 C 277.780 184.336,277.600 184.876,277.600 185.400 C 277.600 185.924,277.420 186.464,277.200 186.600 C 276.980 186.736,276.800 187.199,276.800 187.629 C 276.800 188.059,276.629 188.723,276.419 189.105 C 275.997 189.875,275.094 192.558,273.204 198.660 C 271.365 204.596,270.616 205.282,269.644 201.920 C 269.370 200.974,268.978 199.647,268.773 198.972 C 268.568 198.296,268.400 197.362,268.400 196.895 C 268.400 196.429,268.220 195.936,268.000 195.800 C 267.780 195.664,267.600 194.944,267.600 194.200 C 267.600 193.456,267.420 192.736,267.200 192.600 C 266.980 192.464,266.800 191.744,266.800 191.000 C 266.800 190.256,266.620 189.536,266.400 189.400 C 266.180 189.264,266.000 188.544,266.000 187.800 C 266.000 187.056,265.820 186.336,265.600 186.200 C 265.380 186.064,265.200 185.344,265.200 184.600 C 265.200 183.856,265.020 183.136,264.800 183.000 C 264.580 182.864,264.400 182.144,264.400 181.400 C 264.400 180.656,264.220 179.936,264.000 179.800 C 263.780 179.664,263.600 178.944,263.600 178.200 C 263.600 177.456,263.420 176.736,263.200 176.600 C 262.980 176.464,262.800 175.821,262.800 175.171 C 262.800 174.521,262.637 173.677,262.439 173.295 C 262.240 172.913,261.594 170.539,261.003 168.020 C 259.092 159.872,257.565 157.989,252.641 157.713 C 250.578 157.597,249.486 157.724,248.654 158.177 " class="color000 svgShape color1879d3"></path></svg></svg></g></svg>