<svg id="SvgjsSvg1082" width="288" height="288" xmlns="http://www.w3.org/2000/svg" version="1.1" xmlnsXlink="http://www.w3.org/1999/xlink" xmlnsXvgjs="http://svgjs.com/svgjs"><defs id="SvgjsDefs1083"></defs><g id="SvgjsG1084"><svg xmlns="http://www.w3.org/2000/svg" width="288" height="288" viewBox="0 0 400 400"><path fill-rule="evenodd" d="M103.731 67.624 C 99.861 69.724,100.000 64.454,100.000 208.602 L 100.000 345.433 102.284 347.716 C 105.631 351.064,111.237 351.013,114.502 347.605 L 116.797 345.211 117.188 287.287 L 117.578 229.363 122.029 226.861 C 148.037 212.240,176.904 214.193,203.535 232.376 C 237.056 255.263,277.512 256.140,309.841 234.682 C 317.885 229.342,317.181 236.656,317.185 158.360 C 317.188 82.803,317.429 86.533,312.366 83.915 C 308.854 82.099,305.843 82.871,298.992 87.343 C 272.262 104.793,243.055 103.762,213.190 84.316 C 183.219 64.800,152.844 61.100,122.838 73.311 L 117.337 75.550 116.881 73.271 C 115.744 67.586,109.077 64.723,103.731 67.624 M175.391 85.879 C 184.876 88.176,192.360 91.678,203.283 98.933 C 234.105 119.403,264.649 122.376,298.638 108.213 C 299.941 107.670,300.000 110.511,299.810 164.147 L 299.609 220.653 292.578 224.339 C 266.662 237.924,239.784 235.518,212.475 217.168 C 184.924 198.655,151.801 194.749,122.867 206.600 C 120.190 207.697,117.817 208.594,117.594 208.594 C 117.370 208.594,117.188 183.298,117.188 152.382 L 117.188 96.170 122.200 93.367 C 138.258 84.387,157.841 81.630,175.391 85.879 " fill="#9ea0a2" class="color000 svgShape"></path></svg></g></svg>