<svg id="SvgjsSvg1011" width="288" height="288" xmlns="http://www.w3.org/2000/svg" version="1.1" xmlnsXlink="http://www.w3.org/1999/xlink" xmlnsSvgjs="http://svgjs.com/svgjs"><defs id="SvgjsDefs1012"></defs><g id="SvgjsG1013"><svg xmlns="http://www.w3.org/2000/svg" width="288" height="288" viewBox="0 0 400 400"><path fill-rule="evenodd" d="M254.297 20.234 C 243.187 25.389,239.951 41.545,248.284 50.247 C 249.442 51.458,268.232 65.826,290.039 82.177 C 311.846 98.528,329.688 112.174,329.688 112.500 C 329.688 112.826,311.846 126.472,290.039 142.823 C 241.835 178.968,243.730 177.130,243.767 187.670 C 243.806 198.777,251.341 206.250,262.500 206.250 C 269.641 206.250,268.816 206.799,323.917 165.427 C 378.000 124.821,378.123 124.721,380.041 120.132 C 382.566 114.089,381.166 104.521,377.111 100.097 C 374.348 97.083,272.707 21.035,269.841 19.838 C 266.099 18.274,258.080 18.479,254.297 20.234 M260.938 94.597 C 133.448 106.775,32.425 208.062,19.560 336.606 C 16.241 369.766,20.918 381.291,37.670 381.233 C 51.472 381.185,56.025 374.504,57.052 352.794 C 61.519 258.352,120.546 177.881,209.176 145.406 C 230.262 137.680,259.468 132.031,278.326 132.031 L 285.178 132.031 298.024 122.461 C 305.089 117.197,310.872 112.715,310.874 112.500 C 310.876 112.285,305.317 107.979,298.522 102.930 L 286.166 93.750 276.872 93.856 C 271.760 93.915,264.590 94.248,260.938 94.597 " fill="#878a8c" class="color000 svgShape"></path></svg></g></svg>