<svg id="SvgjsSvg1039" width="288" height="288" xmlns="http://www.w3.org/2000/svg" version="1.1" xmlnsXlink="http://www.w3.org/1999/xlink" xmlnsSvgjs="http://svgjs.com/svgjs"><defs id="SvgjsDefs1040"></defs><g id="SvgjsG1041"><svg xmlns="http://www.w3.org/2000/svg" width="288" height="288" viewBox="0 0 400 400"><path fill-rule="evenodd" d="M127.475 2.034 C 113.714 8.891,113.686 29.751,127.428 36.762 C 129.661 37.901,130.469 38.801,130.469 40.153 C 130.469 41.164,130.678 43.038,130.934 44.317 C 131.397 46.631,131.378 46.645,127.044 47.154 C 94.483 50.981,91.057 93.131,120.806 123.904 C 132.786 136.296,150.834 145.312,163.661 145.313 C 167.674 145.313,167.733 145.348,173.693 151.473 C 182.010 160.019,181.849 161.117,169.566 179.688 C 162.599 190.221,158.573 197.666,156.997 202.930 L 156.003 206.250 147.497 206.250 C 134.775 206.250,135.156 205.634,135.156 226.172 C 135.156 244.288,135.723 246.094,141.406 246.094 C 146.734 246.094,147.656 243.792,147.656 230.504 L 147.656 218.750 200.000 218.750 L 252.344 218.750 252.344 303.516 L 252.344 388.281 200.000 388.281 L 147.656 388.281 147.656 326.136 L 147.656 263.991 145.739 262.074 C 144.530 260.865,142.928 260.156,141.406 260.156 C 136.002 260.156,135.156 262.372,135.156 276.527 L 135.156 289.063 78.182 289.063 L 21.207 289.063 19.588 291.121 C 17.113 294.268,17.113 319.795,19.588 322.942 C 21.875 325.850,26.562 325.850,28.850 322.942 C 30.289 321.111,30.469 319.813,30.469 311.223 L 30.469 301.563 82.813 301.563 L 135.156 301.563 135.156 344.922 L 135.156 388.281 82.813 388.281 L 30.469 388.281 30.469 365.712 C 30.469 339.695,30.420 339.489,24.219 339.489 C 17.906 339.489,17.969 339.184,17.969 369.861 C 17.969 395.671,18.023 396.639,19.562 398.290 L 21.155 400.000 200.000 400.000 L 378.845 400.000 380.438 398.290 C 382.962 395.581,382.937 298.238,380.412 295.027 C 378.125 292.119,373.438 292.119,371.150 295.027 C 369.554 297.056,369.531 297.736,369.531 342.683 L 369.531 388.281 317.188 388.281 L 264.844 388.281 264.844 321.875 L 264.844 255.469 317.188 255.469 L 369.531 255.469 369.531 265.148 C 369.531 276.788,370.324 278.480,375.781 278.480 C 381.588 278.480,382.031 277.241,382.031 260.987 C 382.031 247.531,381.981 247.100,380.223 245.449 L 378.415 243.750 321.629 243.750 L 264.844 243.750 264.844 226.918 C 264.844 205.518,265.281 206.250,252.503 206.250 L 243.997 206.250 243.021 202.930 C 241.483 197.695,237.887 191.044,230.666 180.078 C 218.117 161.019,217.968 160.042,226.307 151.473 C 232.233 145.384,232.348 145.312,236.268 145.301 C 248.849 145.264,266.408 136.717,278.269 124.856 C 308.952 94.173,306.003 51.038,272.956 47.154 C 268.622 46.645,268.603 46.631,269.066 44.317 C 269.322 43.038,269.531 41.164,269.531 40.153 C 269.531 38.801,270.339 37.901,272.572 36.762 C 286.330 29.743,286.250 8.874,272.439 1.991 L 268.443 0.000 200.000 0.000 L 131.557 -0.000 127.475 2.034 M263.954 12.205 C 270.100 13.434,272.314 19.994,268.029 24.279 L 265.745 26.563 200.000 26.563 L 134.255 26.563 131.971 24.279 C 127.938 20.245,129.917 13.333,135.412 12.262 C 138.159 11.727,261.290 11.672,263.954 12.205 M256.622 44.727 C 255.836 53.564,254.044 64.486,251.932 73.305 C 249.409 83.841,249.429 86.156,252.058 88.225 C 258.741 93.481,262.871 86.879,266.534 65.079 C 267.602 58.720,268.670 58.118,275.079 60.264 C 302.377 69.404,278.587 123.153,243.526 131.554 L 241.350 132.075 243.789 127.952 C 254.194 110.362,255.126 102.344,246.765 102.344 C 242.960 102.344,242.147 103.231,237.538 112.405 C 231.019 125.383,224.580 134.760,216.104 143.618 C 203.257 157.042,203.676 162.442,219.398 186.119 C 226.310 196.528,230.469 203.787,230.469 205.443 C 230.469 205.984,220.445 206.250,200.000 206.250 C 179.555 206.250,169.531 205.984,169.531 205.443 C 169.531 203.787,173.690 196.528,180.602 186.119 C 196.385 162.351,196.771 157.039,183.704 143.436 C 161.877 120.713,147.482 85.198,143.377 43.945 L 142.891 39.063 200.009 39.063 L 257.126 39.062 256.622 44.727 M195.370 49.764 C 193.545 50.724,191.475 53.159,188.860 57.422 C 183.941 65.440,184.973 64.679,176.069 66.859 C 161.793 70.354,159.865 76.698,169.542 88.333 C 173.939 93.620,174.942 95.308,174.618 96.875 C 170.887 114.955,177.411 122.072,192.151 116.001 C 200.231 112.674,199.769 112.674,207.849 116.001 C 221.588 121.660,227.107 117.464,225.814 102.344 C 225.367 97.115,225.441 94.576,226.066 93.750 C 226.554 93.105,228.975 90.196,231.445 87.285 C 240.150 77.027,237.442 69.884,223.664 66.756 C 220.746 66.094,217.743 65.369,216.991 65.145 C 216.238 64.921,213.782 61.727,211.534 58.048 C 205.898 48.824,201.470 46.555,195.370 49.764 M133.897 67.342 C 137.426 86.779,145.794 109.634,155.800 127.164 L 158.596 132.061 156.446 131.547 C 118.606 122.486,95.496 60.174,129.702 59.434 L 132.451 59.375 133.897 67.342 M203.456 69.190 C 207.043 75.321,208.008 75.995,215.749 77.779 L 221.731 79.158 217.032 84.619 L 212.332 90.079 212.878 97.369 L 213.425 104.658 207.777 102.329 C 204.670 101.048,201.171 100.000,200.000 100.000 C 198.829 100.000,195.330 101.048,192.223 102.329 L 186.575 104.658 187.122 97.369 L 187.668 90.079 182.968 84.619 L 178.269 79.158 184.251 77.779 C 191.992 75.995,192.957 75.321,196.544 69.190 C 198.194 66.370,199.749 64.063,200.000 64.063 C 200.251 64.063,201.806 66.370,203.456 69.190 M189.980 229.933 C 185.953 234.220,188.716 239.815,195.167 240.434 L 199.219 240.824 199.219 264.588 L 199.219 288.352 201.136 290.270 C 203.509 292.642,206.874 292.760,209.660 290.568 L 211.719 288.949 211.719 260.236 L 211.719 231.522 209.911 229.824 C 207.102 227.186,192.486 227.266,189.980 229.933 M311.683 265.907 C 300.638 268.886,293.398 283.816,301.261 287.399 C 305.444 289.304,308.502 287.746,310.808 282.533 C 314.608 273.941,326.199 277.809,323.514 286.773 C 322.703 289.478,314.327 301.871,304.828 314.419 C 294.767 327.710,297.165 330.219,320.080 330.376 C 334.455 330.475,336.738 330.028,338.195 326.830 C 341.078 320.503,337.776 317.969,326.650 317.969 L 318.072 317.969 324.675 308.789 C 335.913 293.166,338.302 286.419,335.539 278.102 C 332.261 268.233,322.175 263.077,311.683 265.907 M76.736 312.821 C 65.848 316.371,59.230 330.785,66.886 334.274 C 71.000 336.148,74.621 334.326,76.191 329.591 C 78.762 321.839,89.844 323.837,89.844 332.053 C 89.844 334.617,85.722 338.281,82.837 338.281 C 79.600 338.281,76.563 341.307,76.563 344.531 C 76.563 347.321,79.550 350.781,81.959 350.781 C 88.565 350.781,92.037 358.083,87.560 362.560 C 83.225 366.895,75.781 363.910,75.781 357.837 C 75.781 352.267,69.080 349.599,65.096 353.583 C 59.946 358.733,65.652 371.487,75.000 375.718 C 91.678 383.267,109.072 364.063,99.817 348.319 L 97.680 344.685 99.676 341.115 C 108.329 325.633,93.509 307.353,76.736 312.821 " fill="#878a8c" class="color000 svgShape"></path></svg></g></svg>